# xmcd
#
# Track frame offsets: 
#        225
#        16088
#        31507
#        50423
#        77448
#        93964
#        107207
#        127950
#        148549
#        157602
#
# Disc length: 2381 seconds
#
# Revision: 1
# Processed by: cddbd v1.5.2PL0 Copyright (c) Steve Scherf et al.
# Submitted via: ExactAudioCopyFreeDBPlugin 1.0
#
DISCID=63094a0a
DTITLE=Johnny Jenkins - Handle with Care
DYEAR=1999
DGENRE=Rhythm and Blues
TTITLE0=Cry Like a Man
TTITLE1=A Woman's Love in Vain
TTITLE2=Swift Creek
TTITLE3=Reach Out and Touch (Somebody's Hand)
TTITLE4=Johnny's Blues
TTITLE5=Take That
TTITLE6=Come in Out of the Rain
TTITLE7=Bashful Guitar
TTITLE8=Spunky
TTITLE9=Sincerely
EXTD=
EXTT0=
EXTT1=
EXTT2=
EXTT3=
EXTT4=
EXTT5=
EXTT6=
EXTT7=
EXTT8=
EXTT9=
PLAYORDER=
